<svg xmlns="http://www.w3.org/2000/svg" viewBox="0 0 511.96 615.62"><defs><style>.cls-1,.cls-3{opacity:0.5;}.cls-2,.cls-4{fill:#fff;}.cls-3,.cls-4{font-size:271.27px;font-family:SegoeMDL2Assets, Segoe MDL2 Assets;}</style></defs><title>logo</title><g id="Layer_2" data-name="Layer 2"><path class="cls-1" d="M641.94,526.66A285.17,285.17,0,0,1,640,559H587.9c.62-16.06.56-27.66.56-32.34,0-100.12-7.42-173.2-56.65-257.77l10.58-5.18C625.53,370.15,641.94,470.84,641.94,526.66Z" transform="translate(-275.05 -238.11)"/><path class="cls-1" d="M407.77,741.17c50-56.32,84-146.2,84-215.14,0-47.09-13.85-132.05-84-221.86l-8.94,4.38c41.54,71.36,47.8,133,47.8,217.49,0,17,.89,141.83-46.91,209.8Z" transform="translate(-275.05 -238.11)"/><path class="cls-1" d="M290.33,700.71c40.77-45.88,68.43-119.13,68.43-175.31,0-38.37-11.28-107.58-68.43-180.76l-7.28,3.55C316.91,406.34,322,456.58,322,525.4c0,13.85.73,115.58-38.22,171Z" transform="translate(-275.05 -238.11)"/><path class="cls-2" d="M633.94,501.06A285.17,285.17,0,0,1,632,533.4H579.9c.62-16.06.56-27.66.56-32.34,0-100.12-7.42-173.2-56.65-257.77l10.58-5.18C617.53,344.55,633.94,445.24,633.94,501.06Z" transform="translate(-275.05 -238.11)"/><path class="cls-2" d="M399.77,715.57c50-56.32,84-146.2,84-215.14,0-47.09-13.85-132.05-84-221.86l-8.94,4.38c41.54,71.36,47.8,133,47.8,217.49,0,17,.89,141.83-46.91,209.8Z" transform="translate(-275.05 -238.11)"/><path class="cls-2" d="M282.33,675.11C323.11,629.22,350.77,556,350.77,499.8c0-38.37-11.28-107.58-68.43-180.76l-7.28,3.55C308.91,380.74,314,431,314,499.8c0,13.85.73,115.58-38.22,171Z" transform="translate(-275.05 -238.11)"/></g><g id="Layer_3" data-name="Layer 3"><text class="cls-3" transform="translate(240.68 614.96)"></text><text class="cls-4" transform="translate(232.68 589.36)"></text></g></svg>